<svg xmlns="http://www.w3.org/2000/svg" aria-hidden="true" style="position:absolute;width:0;height:0;overflow:hidden"><defs><symbol id="icon-Arrow-right" viewBox="0 0 144 48"><path d="M140.124 26.124c.544-.543.881-1.294.881-2.124s-.337-1.581-.881-2.124L121.032 2.784a3.002 3.002 0 1 0-4.242 4.248L133.758 24 116.79 40.968a3.002 3.002 0 1 0 4.242 4.248l19.092-19.092zM0 27h138v-6H0v6z"/></symbol><symbol id="icon-basket" viewBox="0 0 48 48"><path d="M38.641 44.201H9.358a.914.914 0 0 1-.898-.898V15.056c0-.483.414-.898.898-.898h29.283c.483 0 .898.414.898.898v28.247a.914.914 0 0 1-.898.898zM15.021 14.158c0-10.36 8.978-10.36 8.978-10.36s8.978 0 8.978 10.36"/></symbol><symbol id="icon-close_menu" viewBox="0 0 32 32"><path d="M23.734 10.304 22.23 8.8l-5.963 5.962L10.305 8.8l-1.504 1.504 5.962 5.962-5.962 5.963 1.504 1.504 5.962-5.963 5.963 5.963 1.504-1.504-5.963-5.963 5.963-5.962z"/></symbol><symbol id="icon-close-black-18dp" viewBox="0 0 32 32"><path d="m26.667 7.303-1.97-1.97-7.808 7.808-7.808-7.808-1.97 1.97 7.808 7.808-7.808 7.808 1.97 1.97 7.808-7.808 7.808 7.808 1.97-1.97-7.808-7.808 7.808-7.808z"/></symbol><symbol id="icon-diagram" viewBox="0 0 32 32"><path fill="#2196f3" d="M14.926 14.965h1.066v4.798h-1.066v-4.797zM19.19 17.097h1.066v2.665H19.19v-2.665zM10.661 18.696h1.066v1.066h-1.066v-1.066zM7.463 18.163h1.066v1.599H7.463v-1.599z" style="fill:var(--color2, #2196f3)"/><path fill="#212121" d="M1.599 28.291h25.587a1.6 1.6 0 0 0 1.599-1.599V24.56a1.6 1.6 0 0 0-1.599-1.599h-.533V9.668L29.681 6.8a1.608 1.608 0 1 0-.746-.763L26.654 8.2V6.97a1.6 1.6 0 0 0-1.599-1.599H3.733A1.6 1.6 0 0 0 2.134 6.97v15.992h-.533a1.6 1.6 0 0 0-1.599 1.599v2.132a1.6 1.6 0 0 0 1.599 1.599zM30.384 4.837a.533.533 0 1 1 0 1.067.533.533 0 0 1 0-1.067zM3.198 6.969c0-.294.239-.533.533-.533h21.322c.294 0 .533.239.533.533v2.239l-1.066 1.013V8.035a.533.533 0 0 0-.533-.533H4.797a.533.533 0 0 0-.533.533v13.326c0 .294.239.533.533.533h19.19a.533.533 0 0 0 .533-.533v-9.674l1.066-1.01v12.284H3.198V6.969zm4.798 6.93a1.598 1.598 0 1 0 1.107 2.749l1.853.93a.532.532 0 0 0 .636-.123l3.939-4.431 3.872 2.901a.533.533 0 0 0 .686-.039l3.365-3.188v8.131H5.33V8.569h18.124v2.66l-3.771 3.572-3.904-2.927a.533.533 0 0 0-.718.072l-3.993 4.493-1.493-.746c.011-.064.018-.129.02-.193a1.6 1.6 0 0 0-1.599-1.599zm.533 1.599a.533.533 0 1 1-1.067 0 .533.533 0 0 1 1.067 0zm3.198 8.529h5.331v.533a.533.533 0 0 1-.533.533h-4.264a.533.533 0 0 1-.533-.533v-.533zm-10.661.533c0-.294.239-.533.533-.533h9.062v.533a1.6 1.6 0 0 0 1.599 1.599h4.264a1.6 1.6 0 0 0 1.599-1.599v-.533h9.062c.294 0 .533.239.533.533v2.132a.533.533 0 0 1-.533.533H1.598a.533.533 0 0 1-.533-.533V24.56z" style="fill:var(--color1, #212121)"/><symbol id="icon-check" viewBox="0 0 13 10"><path d="m1.957 4.752-.069-.066-.069.065-.888.842-.076.072.076.073 3.496 3.334.069.066.069-.066 7.504-7.158.076-.073-.076-.072-.882-.841-.069-.066-.069.066-6.553 6.246-2.539-2.422Z" fill="#fff" stroke="#fff" stroke-width=".2"/><symbol id="icon-burger-menu" viewBox="0 0 32 32"><path d="M6.4 11.734V9.6h19.2v2.134H6.4zm0 5.332h19.2v-2.133H6.4v2.133zm0 5.334h19.2v-2.134H6.4V22.4z"/></symbol><symbol id="icon-person-black-18dp" viewBox="0 0 32 32"><path d="M16 16c2.947 0 5.333-2.387 5.333-5.333S18.946 5.334 16 5.334c-2.947 0-5.333 2.387-5.333 5.333S13.054 16 16 16zm0 2.667c-3.56 0-10.667 1.787-10.667 5.333v1.333c0 .733.6 1.333 1.333 1.333h18.667c.733 0 1.333-.6 1.333-1.333V24c0-3.547-7.107-5.333-10.667-5.333z"/></symbol><symbol id="icon-phone-black-18dp" viewBox="0 0 32 32"><path d="m24.882 19.773-3.268-.373a2.561 2.561 0 0 0-2.11.733L17.137 22.5a19.357 19.357 0 0 1-8.478-8.478l2.38-2.38a2.561 2.561 0 0 0 .733-2.11l-.373-3.242a2.575 2.575 0 0 0-2.56-2.277H6.613c-1.454 0-2.663 1.209-2.573 2.663.682 10.987 9.469 19.761 20.443 20.443 1.454.09 2.663-1.119 2.663-2.573V22.32a2.549 2.549 0 0 0-2.264-2.547z"/></symbol><symbol id="icon-smartphone" viewBox="0 0 20 32"><path d="M17 0H3C1.346 0 0 1.346 0 3v26c0 1.654 1.346 3 3 3h14c1.654 0 3-1.346 3-3V3c0-1.654-1.346-3-3-3zM3 2h14a1 1 0 0 1 1 1v21H2V3a1 1 0 0 1 1-1zm14 28H3a1 1 0 0 1-1-1v-3h16v3a1 1 0 0 1-1 1z"/><path d="M4.707 27.478c.391.365.391.956 0 1.321s-1.024.365-1.414 0c-.391-.365-.391-.956 0-1.321s1.024-.365 1.414 0z"/></symbol><symbol id="icon-basket" viewBox="0 0 48 48"><path d="M38.641 44.201H9.358a.914.914 0 0 1-.898-.898V15.056c0-.483.414-.898.898-.898h29.283c.483 0 .898.414.898.898v28.247a.914.914 0 0 1-.898.898zM15.021 14.158c0-10.36 8.978-10.36 8.978-10.36s8.978 0 8.978 10.36"/></symbol><symbol id="icon-Burger-menu" viewBox="0 0 48 48"><path d="M41.914 18.26H5.034m36.88 13.294H5.034m36.88 13.296H5.034"/></symbol><symbol id="icon-instagram" viewBox="0 0 32 32"><path fill="#487acd" d="M31.398 15.851c0 2.147-.044 4.3.012 6.445.094 3.8-2.327 6.735-5.411 8.043a9.907 9.907 0 0 1-3.884.802c-4.21.006-8.426.062-12.636-.018-3.172-.062-5.78-1.369-7.65-3.948-.982-1.357-1.452-2.9-1.452-4.571V9.344c0-3.609 1.783-6.131 4.948-7.772C6.7.863 8.196.56 9.753.554c4.084 0 8.175-.024 12.26.012 3.171.025 5.817 1.221 7.769 3.738 1.088 1.406 1.613 3.022 1.613 4.798v6.748zm-28.711 0v6.785c0 1.012.237 1.962.769 2.819 1.396 2.252 3.503 3.349 6.118 3.392 4.197.062 8.4.025 12.604.012h.043a6.898 6.898 0 0 0 2.964-.665l-.042.018c2.54-1.196 3.96-3.102 3.947-5.964-.025-4.38-.006-8.758-.006-13.138 0-1.239-.356-2.374-1.1-3.373-1.439-1.918-3.428-2.862-5.804-2.886-4.191-.05-8.382-.019-12.573-.012-.894 0-1.758.178-2.596.487-2.302.844-4.442 2.985-4.341 6.137.075 2.133.018 4.261.018 6.389z" style="fill:var(--color1, #487acd)"/><path fill="#487acd" d="M15.923 22.388c-4.036 0-7.288-3.17-7.294-7.117-.006-3.886 3.271-7.068 7.281-7.068 4.022-.006 7.288 3.17 7.294 7.087 0 3.91-3.26 7.093-7.281 7.099zm0-2.281c2.746 0 4.972-2.165 4.966-4.829-.006-2.64-2.233-4.799-4.966-4.799-2.747 0-4.987 2.153-4.987 4.812.007 2.664 2.24 4.823 4.987 4.817zm8.806-14.063c.844 0 1.532.709 1.532 1.579-.006.87-.7 1.573-1.545 1.567-.832-.006-1.514-.709-1.514-1.561-.006-.869.682-1.585 1.526-1.585z" style="fill:var(--color1, #487acd)"/></symbol><symbol id="icon-certificate" viewBox="0 0 32 32"><path d="M27.07 19.795a5.67 5.67 0 0 0-2.25-4.5V3.935a.17.17 0 0 0 0-.045.521.521 0 0 0-.045-.155v-.04a.783.783 0 0 0-.095-.12L21.085.135a.5.5 0 0 0-.34-.135H5.93a1.433 1.433 0 0 0-1.45 1.415v22.22a1.432 1.432 0 0 0 1.45 1.415h12.04v6.45a.501.501 0 0 0 .845.325L21.39 29l2.575 2.84a.502.502 0 0 0 .535.13.5.5 0 0 0 .31-.455V24.32a5.66 5.66 0 0 0 2.26-4.525zm-.97 0a4.71 4.71 0 1 1-9.419 0 4.71 4.71 0 0 1 9.419 0zM21.23 1.62l1.9 1.83h-1.415a.47.47 0 0 1-.5-.445l.015-1.385zm-15.78 22V1.415a.458.458 0 0 1 .5-.445h14.325V3a1.44 1.44 0 0 0 1.455 1.415h2.135v10.27a5.621 5.621 0 0 0-2.46-.57 5.668 5.668 0 0 0-3.73 9.964H5.93a.46.46 0 0 1-.48-.445v-.015zm13.5 1.275c.616.3 1.282.483 1.965.54v2.645l-1.965 2.165v-5.35zm4.9 5.35-1.975-2.15V25.45a5.65 5.65 0 0 0 1.965-.535l.01 5.33z"/><path d="M21.391 16.4a3.397 3.397 0 0 0-3.405 3.388 3.395 3.395 0 1 0 3.406-3.388zm0 5.82a2.423 2.423 0 0 1-1.715-4.14 2.423 2.423 0 0 1 3.43 0 2.423 2.423 0 0 1-.002 3.428 2.433 2.433 0 0 1-1.713.712zM15.165 12.04h-7.28a.5.5 0 0 0 0 .97h7.28a.5.5 0 1 0 0-.97zM7.886 17.175h4.39a.5.5 0 0 0 0-.97h-4.39a.5.5 0 0 0 0 .97zM13.226 20.375h-5.34a.5.5 0 0 0 0 .97h5.34a.5.5 0 1 0 0-.97zM7.886 4.675h10.14a.5.5 0 0 0 0-.97H7.886a.5.5 0 0 0 0 .97zM7.886 8.845h10.14a.5.5 0 0 0 0-.97H7.886a.5.5 0 0 0 0 .97z"/></symbol><symbol id="icon-noun-order" viewBox="0 0 32 32"><path d="M22.5 2.25a.75.75 0 1 1-1.5 0 .75.75 0 0 1 1.5 0zM25.25 2.25a.75.75 0 1 1-1.5 0 .75.75 0 0 1 1.5 0zM4.75 16.5h5.5c1.1 0 2-.9 2-2v-4c0-1.1-.9-2-2-2h-5.5c-1.1 0-2 .9-2 2v4c0 1.1.9 2 2 2zm-1-6c0-.55.45-1 1-1h5.5c.55 0 1 .45 1 1v4c0 .55-.45 1-1 1h-5.5c-.55 0-1-.45-1-1v-4zM24.749 8.5h-10.5c-.275 0-.5.225-.5.5s.225.5.5.5h10.5c.275 0 .5-.225.5-.5s-.225-.5-.5-.5zM24.749 10.5h-10.5c-.275 0-.5.225-.5.5s.225.5.5.5h10.5c.275 0 .5-.225.5-.5s-.225-.5-.5-.5zM25.25 13c0-.275-.225-.5-.5-.5h-10.5c-.275 0-.5.225-.5.5s.225.5.5.5h10.5c.275 0 .5-.225.5-.5zM19.025 15.5c.275 0 .5-.225.5-.5s-.225-.5-.5-.5H14.25c-.275 0-.5.225-.5.5s.225.5.5.5h4.775zM13.5 17.5H3c-.275 0-.5.225-.5.5s.225.5.5.5h10.5c.275 0 .5-.225.5-.5s-.225-.5-.5-.5zM13.5 19.5H3c-.275 0-.5.225-.5.5s.225.5.5.5h10.5c.275 0 .5-.225.5-.5s-.225-.5-.5-.5zM13.5 21.5H3c-.275 0-.5.225-.5.5s.225.5.5.5h10.5c.275 0 .5-.225.5-.5s-.225-.5-.5-.5z"/><path d="M2 26c-.55 0-1-.45-1-1V4.5h26v15.6l1 .375V2c0-1.1-.9-2-2-2H2C.9 0 0 .9 0 2v23c0 1.1.9 2 2 2h18.8l-.35-1H2zM2 1h24c.55 0 1 .45 1 1v1.5H1V2c0-.55.45-1 1-1z"/><path d="m31.3 28.65-3.6-3.875 1.35-.6c1.275-.7 1.25-1.7-.1-2.275l-7.725-2.95c-.3-.125-.575-.2-.825-.2-.8 0-1.125.7-.775 1.825l2.75 8.025c.25.775.625 1.175 1.025 1.175.375 0 .75-.325 1.075-.95L25.1 27.4l3.55 3.8c.475.525 1.125.8 1.7.8.425 0 .825-.15 1.125-.45.75-.7.675-2-.175-2.9zm-.475 2.2c-.1.1-.25.15-.425.15-.325 0-.7-.175-.975-.475l-4.575-4.9L24.225 27l-.6 1.375c-.05.1-.1.175-.15.225-.025-.075-.075-.175-.125-.3l-2.75-8.05c-.075-.25-.1-.4-.1-.5.075 0 .2.05.35.1h.025l7.7 2.975c.175.075.3.15.35.2-.05.05-.15.15-.325.225l-1.3.575-1.275.575.95 1.025 3.6 3.875c.5.575.525 1.275.25 1.55z"/></symbol><symbol id="icon-partnership" viewBox="0 0 32 32"><path d="M31.899 15.383 24.797 4.087c-.056-.112-.224-.224-.336-.224-.168-.056-.28 0-.447.056l-3.355 2.125c-.28.168-.336.503-.168.783l.168.28c-1.342-.224-3.411-.336-4.753.28h-.056c-1.454-.503-3.915-.224-5.369.056l.447-.727c.168-.28.056-.615-.224-.783L7.405 3.976c-.112-.056-.28-.112-.447-.056s-.28.112-.336.28L.079 15.72c-.168.28-.056.615.224.783l3.244 1.845c.112.056.168.056.28.056a.666.666 0 0 0 .503-.28l.671-1.174c.168.391.391.727.615.951-.391.447-.615 1.007-.615 1.566 0 .615.224 1.23.671 1.678s1.063.671 1.678.671h.224v.224c0 .615.224 1.23.671 1.678s1.007.671 1.678.671h.224v.224c0 .615.224 1.23.671 1.678s1.063.671 1.678.671 1.174-.224 1.678-.671l.224-.224 1.342 1.007c.447.336.895.503 1.398.503.727 0 1.398-.28 1.79-.839.28-.392.447-.783.447-1.23h.112a2.28 2.28 0 0 0 1.79-.839c.28-.391.447-.839.447-1.23h.168c.671 0 1.342-.28 1.79-.783a1.84 1.84 0 0 0 .447-1.23c.559-.056 1.118-.336 1.454-.839.503-.671.559-1.51.224-2.181l1.51-.895.447.727c.056.112.224.224.336.224h.112a.428.428 0 0 0 .28-.112l3.355-2.181c.168-.224.224-.559.056-.783zM3.602 17.061l-2.293-1.286L7.293 5.15l2.349 1.398-6.04 10.513zm2.796 3.299a1.232 1.232 0 0 1-.336-.839c0-.336.112-.615.336-.839l.335-.336c.447-.447 1.286-.447 1.734 0 .224.224.336.559.336.839 0 .336-.112.615-.336.839l-.336.336c-.447.447-1.23.447-1.734 0zm2.517 2.517a1.232 1.232 0 0 1-.336-.839c0-.335.112-.615.336-.839l.336-.335c.224-.224.559-.336.839-.336s.615.112.839.336c.503.503.503 1.23 0 1.734l-.336.336c-.392.391-1.174.391-1.678-.056zm4.25 2.516a1.289 1.289 0 0 1-1.734 0 1.232 1.232 0 0 1-.336-.839c0-.336.112-.615.336-.839l.335-.336c.224-.224.559-.336.839-.336s.615.112.839.336c.224.224.336.559.336.839 0 .336-.112.615-.336.839l-.28.336zm11.352-5.592a1.01 1.01 0 0 1-.951.391c-.056-.056-.168-.056-.28-.056l-.336-.168-1.118-.895c-.224-.168-.615-.168-.783.112-.168.224-.168.615.112.783l1.118.895c.168.112.335.224.559.335 0 .224-.056.447-.168.615-.391.447-1.118.559-1.566.224l-.056-.056s-.056 0-.056-.056l-1.118-.895c-.224-.168-.615-.168-.783.112-.168.224-.168.615.112.783l1.118.895.056.056c.168.28.168.727-.056 1.007-.336.392-1.007.559-1.454.28-.056-.056-.112-.056-.168-.112l-.056-.056-1.118-.895c-.224-.168-.615-.168-.783.112-.168.224-.168.615.112.783l1.118.895c.056 0 .056.056.112.112.112.336.112.671-.168 1.007-.168.28-.503.392-.895.392-.28 0-.503-.056-.727-.28l-1.118-.839-.28-.168c.112-.28.168-.559.168-.895 0-.615-.224-1.23-.671-1.678a2.314 2.314 0 0 0-1.845-.671c.056-.671-.168-1.342-.671-1.845s-1.174-.727-1.845-.671v-.224c0-.615-.224-1.23-.671-1.678s-1.007-.671-1.678-.671c-.447 0-.895.112-1.23.336a3.175 3.175 0 0 1-.671-1.51l4.026-6.991c1.118-.224 3.467-.615 5.033-.392l-3.859 3.579c-.671.671-.727 1.734-.056 2.461.335.391.839.615 1.342.615.335 0 .671-.112.951-.28l3.188-2.125a1.942 1.942 0 0 1 1.566-.335l.559.056 5.089 5.369.895.951c.28.28.28.895 0 1.286zm.447-2.405-.615-.671-4.138-4.418.727.056c.28.056.559-.168.615-.503.056-.28-.168-.559-.503-.615l-2.125-.224c-.112-.056-.168-.056-.28-.056l-.559-.056c-.783-.112-1.678.056-2.349.559l-3.188 2.125a.677.677 0 0 1-.839-.112c-.224-.28-.224-.671 0-.895l4.194-3.915c.056-.056.168-.112.224-.224.112 0 .168-.056.224-.112 1.174-.559 3.579-.336 5.089 0l5.089 8.109-1.566.95zm3.299-.335-.392-.559c0-.056 0-.112-.056-.168s-.112-.112-.112-.168l-5.928-9.507 2.405-1.51 6.487 10.346-2.405 1.566z"/></symbol><symbol id="icon-quality" viewBox="0 0 32 32"><path d="m7.79 7.345 3.005 2.895-.71 4.115c-.075.395.08.8.405 1.035.32.24.745.275 1.1.095l3.835-1.915 3.635 1.895c.51.275 1.145.085 1.425-.425.11-.205.15-.445.11-.68l-.71-4.1 2.98-2.915a1.044 1.044 0 0 0-.58-1.785l-4.155-.606-1.855-3.74a1.046 1.046 0 0 0-.945-.575c-.395 0-.76.22-.94.575l-1.855 3.74-4.16.6a1.04 1.04 0 0 0-.895 1.175c.03.235.14.45.31.615zm5.205-1.295a.57.57 0 0 0 .42-.315L15.33 1.9l1.915 3.835c.085.17.245.285.435.315l4.245.615L18.86 9.63c-.135.13-.2.32-.17.51l.725 4.195L15.7 12.4a.572.572 0 0 0-.525 0l-3.91 1.96.73-4.215a.57.57 0 0 0-.18-.5L8.75 6.68l4.245-.63zM31.429 17.69c-.39-.45-.94-.725-1.535-.765s-1.175.16-1.615.56l-5.31 4.77a3.49 3.49 0 0 0-.06-.315 2.407 2.407 0 0 0-1.27-1.535c-.985-.415-2.355-.22-3.675-.03-.775.15-1.565.2-2.35.145-.35-.09-.69-.215-1.01-.385-1.005-.45-2.38-1.06-4.94-.5a8.114 8.114 0 0 0-3.53 1.945v-1.405a.575.575 0 0 0-.575-.575H.574a.587.587 0 0 0-.575.585V31.3c0 .315.255.575.575.575h4.98c.32 0 .575-.255.575-.575v-.795c.765.18 4.245.99 6.82.99 2.685 0 5.965-.615 7.985-1.49 3.72-1.615 9.85-8.575 10.349-9.14.895-.85.96-2.25.145-3.175zM4.979 30.724h-3.83v-9.965h3.835v9.965h-.005zm25.505-10.7-.055.055c-.065.075-6.395 7.325-9.965 8.87-1.88.815-4.975 1.39-7.515 1.39-2.685 0-6.64-.98-6.68-.99a.655.655 0 0 0-.14 0v-6.13c.42-.48 1.895-2.035 3.78-2.45 2.19-.48 3.275 0 4.215.425.405.2.835.35 1.28.445.905.085 1.82.04 2.71-.14 1.115-.155 2.38-.33 3.065-.04.3.17.515.455.6.79a1.47 1.47 0 0 1-.31 1.305c-.875 1.175-6.19 2.93-8.37 2.755a.577.577 0 0 0-.09 1.15h.385c2.38 0 6.925-1.405 8.59-2.805l.04-.025 6.99-6.285c.21-.185.485-.285.765-.27.295.02.575.155.765.385a1.11 1.11 0 0 1-.059 1.565h.001z"/><symbol id="icon-safety" viewBox="0 0 32 32"><path fill="none" stroke="#487ACD" stroke-width=".681" d="M31.66 16c0 8.649-7.011 15.66-15.66 15.66S.34 24.649.34 16C.34 7.351 7.351.34 16 .34S31.66 7.351 31.66 16z" style="stroke:var(--color1, #487ACD)"/><path fill="none" stroke="#487ACD" stroke-width=".511" d="m19.98 7.599-.007-.002-.008-.002a10.708 10.708 0 0 1-3.72-1.821l.026.019a.682.682 0 0 0-.431-.173h-.018a.69.69 0 0 0-.459.174l.001-.001a10.204 10.204 0 0 1-3.603 1.785l-.072.016-.008.002-.008.003c-.464.156-1.527.38-2.502.568a88.69 88.69 0 0 1-1.278.236c.084-.007-.093.024-.272.054l-.252.035-.006.001-.019.002h-.006l-.02.003a.681.681 0 0 0-.403.219l-.001.001a.651.651 0 0 0-.165.429v.002c0 6.563.076 9.686 2.212 12.858.927 1.378 2.549 2.466 3.935 3.214 1.313.708 2.448 1.126 2.656 1.203l.028.01.022.009.024.004a.653.653 0 0 0 .207.004h.17l.044-.017.031-.011a21.192 21.192 0 0 0 2.782-1.258l-.113.056c1.394-.747 3.025-1.836 3.952-3.214 2.136-3.172 2.212-6.295 2.212-12.858v-.002a.657.657 0 0 0-.166-.43l.001.001a.684.684 0 0 0-.397-.219l-.004-.001h-.001l-.008-.001-.029-.005a28.127 28.127 0 0 1-.899-.149l.389.06c-.336-.06-.794-.143-1.283-.236-.985-.188-2.067-.413-2.535-.569zm-12.646.898h.003-.003zm4.776.429.008-.002.008-.002a13.893 13.893 0 0 0 3.754-1.834l-.046.03a13.805 13.805 0 0 0 3.633 1.714l.099.026.006.001.005.001c1.322.327 2.659.589 4.008.786-.037 6.611-.235 8.962-2.015 11.604l-.043.065v.031c-.705 1.006-1.933 1.874-3.112 2.535-.717.409-1.573.819-2.459 1.17l-.142.05a20.122 20.122 0 0 1-2.684-1.273l.102.053c-1.196-.675-2.442-1.565-3.139-2.598-1.779-2.642-1.978-4.993-1.99-11.572a41.24 41.24 0 0 0 4.297-.848l-.289.062z" style="stroke:var(--color1, #487ACD)"/><path fill="none" stroke="#487ACD" stroke-width=".511" d="M15.983 20.919a4.655 4.655 0 1 0 0-9.31 4.655 4.655 0 0 0 0 9.31z" style="stroke:var(--color1, #487ACD)"/><path fill="none" stroke="#487ACD" stroke-linecap="round" stroke-linejoin="round" stroke-width=".511" d="m13.583 16.264 1.8 1.8 3-3.4" style="stroke:var(--color1, #487ACD)"/></symbol><symbol id="icon-elastic" viewBox="0 0 32 32"><path fill="none" stroke="#487ACD" stroke-linejoin="round" stroke-width=".681" d="M31.66 16c0 8.649-7.011 15.66-15.66 15.66S.34 24.649.34 16C.34 7.351 7.351.34 16 .34S31.66 7.351 31.66 16z" style="stroke:var(--color1, #487ACD)"/><path fill="none" stroke="#487ACD" stroke-linecap="round" stroke-linejoin="round" stroke-width=".511" d="M18.705 24.215h.989m0 0h.989v2.891h-9.531v-2.891h.449m8.093 0v-1.446m0 0h-7.642m7.642 0c.503 0 1.348-3.494 1.708-5.241v-5.421c-.863-1.157-1.678-.482-1.978 0m-7.372 10.662v1.446m0-1.446c-.479-1.265-1.438-4.084-1.438-5.241v-7.59c.3-.663 1.115-1.59 1.978 0v4.517-7.409c.36-.602 1.295-1.445 2.158 0v6.867-7.771c.419-.783 1.474-1.879 2.337 0v.904m-5.035 17.169h-.449m.449 0h-.449m5.484-11.338V7.048m0 0c.36-.603 1.331-1.446 2.338 0v5.06m-.001 3.252v-3.253m-5.414 3.399c-1.079.723-2.045 2.851-.52 5.2.52.8 3.214 1.879 5.215 0 .54-.662 1.295-2.385 0-3.976-.419-.362-1.618-.867-3.057 0-.479.482-1.151 1.699 0 2.71.78.181 2.518.181 2.338-1.084-.18-.723-.779-1.251-1.778-.451" style="stroke:var(--color1, #487ACD)"/></symbol><symbol id="icon-sensative" viewBox="0 0 32 32"><path fill="none" stroke="#487ACD" stroke-linecap="round" stroke-linejoin="round" stroke-width=".511" d="m14.167 18.173-4.655-6.855c-.179-1.804 1.492-1.684 2.149-1.263l3.58 4.69c-.143-2.165 1.492-1.503 2.328-.902.143-1.732 1.373-1.443 1.969-1.083l.895 1.083c-.286-1.01.597-1.142 1.074-1.083 1.862.722 3.282 6.194 3.76 8.84l-6.087 3.608-6.266-4.51c-1.289-1.155-.537-2.165 0-2.526M8.975 12.04l-1.432 1.083m.895-3.067h-1.97m2.507-1.083L8.08 7.891m2.506.361V6.809m1.612 2.164.716-1.083" style="stroke:var(--color1, #487ACD)"/><path fill="none" stroke="#487ACD" stroke-width=".681" d="M31.66 16c0 8.649-7.011 15.66-15.66 15.66S.34 24.649.34 16C.34 7.351 7.351.34 16 .34S31.66 7.351 31.66 16z" style="stroke:var(--color1, #487ACD)"/></symbol><symbol id="icon-high-fast" viewBox="0 0 32 32"><path fill="none" stroke="#487ACD" stroke-width=".681" d="M31.66 16c0 8.649-7.011 15.66-15.66 15.66S.34 24.649.34 16C.34 7.351 7.351.34 16 .34S31.66 7.351 31.66 16z" style="stroke:var(--color1, #487ACD"/><path fill="none" stroke="#487ACD" stroke-linecap="round" stroke-linejoin="round" stroke-width=".511" d="M17.601 25.209h-4.6v-2.491l-.466-.89m5.066 3.381v-3.025l-1.415-2.847v-6.405c.236-.534.92-1.281 1.769 0m-.354 12.277h6.192v-3.025l1.416-3.025v-8.54c-.708-.996-1.474-.415-1.769 0m-5.485 2.313v3.202m0-3.202v-4.27c.295-.475 1.097-1.139 1.946 0m.001 0v5.515m0-5.515V7.594c.295-.356 1.061-.854 1.769 0v.712m0 5.871V8.306m0 0c.295-.474 1.061-1.139 1.769 0v2.313m0 3.559v-3.559m-.708 13.344h-1.946m-7.784-11.031c-.708-.996-1.474-.415-1.769 0v.534m1.769-.534v3.025m0-3.025V9.907m1.946-1.245c-.708-1.281-1.592-.533-1.946 0v1.246m1.946-1.246v5.516m0-5.516V7.594c.295-.593 1.097-1.423 1.946 0m0 .001v3.024m0-3.024c.413-.356 1.345-.854 1.769 0M9.994 9.907h3.008m-4.247 0H6.809m4.423 3.559H6.986m4.246 0v2.936m0-.001v2.936l1.304 2.491m-1.304-5.426H9.463m-.885 0h-.531m1.593 1.156H6.986m1.239 3.025H6.81m.176 1.245h5.55" style="stroke:var(--color1, #487ACD)"/></symbol><symbol id="icon-fixed-position" viewBox="0 0 32 32"><path fill="none" stroke="#487ACD" stroke-width=".681" d="M31.66 16c0 8.649-7.011 15.66-15.66 15.66S.34 24.649.34 16C.34 7.351 7.351.34 16 .34S31.66 7.351 31.66 16z" style="stroke:var(--color1, #487ACD)"/><path fill="none" stroke="#487ACD" stroke-linecap="round" stroke-linejoin="round" stroke-width=".511" d="M13.005 12.649v-.558l.371-1.674h-5.76l-3.531 3.348 3.531 3.348h5.76l-.371-2.232h2.044m-2.044-2.232h2.044v2.232m-2.044-2.232h-1.672l-.744 1.116H7.616m7.433 1.116.186-3.906c.31-.744 1.301-.93 2.044 0v3.348-4.65c.371-.62 1.338-1.488 2.23 0m-4.46 5.208c.557.806 1.746 2.418 2.044 2.418v1.674m2.416-9.301v2.046m0-2.046c.31-.496 1.115-1.19 1.858 0m0 0v2.046m0-2.046c.186-.558 1.449-1.042 2.044 0v.558m0 1.488V10.23m0 .001c.372-.496 1.152-1.19 2.044 0v2.418m0 2.418c-.186.558-.669 1.748-1.115 2.046m1.115-2.046-1.115 2.046m1.115-2.046h1.858l.372-.744v-1.302l-.372-.372h-1.858m0 2.418v-2.418m-1.115 4.464v1.86m0 0h-7.247m7.247 0 1.115.558v1.488l-.558.558-.558.013m-7.246-2.617-.929.558v1.488l.697.558m0 0v1.674h7.48V21.59m-7.48-.013 7.479.014" style="stroke:var(--color1, #487ACD)"/></symbol><symbol id="icon-alergic" viewBox="0 0 32 32"><path fill="none" stroke="#487ACD" stroke-width=".681" d="M31.66 16c0 8.649-7.011 15.66-15.66 15.66S.34 24.649.34 16C.34 7.351 7.351.34 16 .34S31.66 7.351 31.66 16z" style="stroke:var(--color1, #487ACD)"/><path fill="none" stroke="#487ACD" stroke-linecap="round" stroke-linejoin="round" stroke-width=".511" d="m10.736 15.976-2.8 2.75c-.8 4.64 2.867 5.667 4.8 5.6l2.4-2.4m-4.4-5.95-3.2-3.05c-.267-2.267.48-6.48 5.6-5.2l3.2 2.75m-5.6 5.5 5.6-5.5m.001 0 .6-.589m4.4 5.839 2.8-2.8c.8-5.12-3-5.6-5-5.2l-2.2 2.16m4.4 5.84 2.8 3c1.2 2.2 0 6.4-5 5l-3.4-2.4m5.6-5.6-5.6 5.6m0 0-.6.6m1.8-12.039 3 3.04m.8.599.6.6m-10.4 3.4.6.6m.6.6 3 3.2m-2.001-5.4 3.2-3.6c1.2-.333 3.48-.28 3 2.6l-3.6 3.8c-1.133.133-3.24-.24-2.6-2.8z" style="stroke:var(--color1, #487ACD)"/><path fill="none" stroke="#487ACD" stroke-linecap="round" stroke-linejoin="round" stroke-width=".511" d="M14.8 17.4c.16-.16 1.667-1.8 2.4-2.6" style="stroke:var(--color1, #487ACD)"/></symbol><symbol id="icon-rounded-down" viewBox="0 0 32 32"><path d="M25.142 13.437l-8.032 8.032c-0.307 0.307-0.707 0.458-1.107 0.458s-0.803-0.154-1.107-0.458l-8.032-8.032c-0.611-0.611-0.611-1.603 0-2.218l0.691-0.691c0.611-0.611 1.603-0.611 2.218 0l5.126 5.126c0.307 0.307 0.707 0.458 1.107 0.458s0.803-0.154 1.107-0.458l5.126-5.126c0.611-0.611 1.603-0.611 2.218 0l0.691 0.691c0.605 0.614 0.605 1.606-0.006 2.218z"></path></symbol><symbol id="icon-basket1" viewBox="0 0 32 32"><path d="M26.364 30H5.636L-.188 12h32.374l-5.823 18zm-20-1h19.273l5.177-16H1.189l5.176 16z"/><path d="m10.536 2.315.929.372-4.001 9.999-.929-.371zm10.929 0 4 10-.929.372-4-10.001z"/></symbol><symbol id="icon-basket2" viewBox="0 0 28 32"><path d="M27.543 31.714H.286v-24h27.257v24zM2 30h23.829V9.429H2V30z"/><path d="M21.714 14.686H20V6.457C20 4 18 2 15.543 2h-3.2C9.886 2 7.886 4 7.886 6.457v8.229H6.172V6.457A6.145 6.145 0 0 1 12.343.286h3.2a6.145 6.145 0 0 1 6.171 6.171v8.229z"/></symbol><symbol id="icon-basket_icon" viewBox="0 0 26 32"><path fill="none" stroke="#fff" stroke-miterlimit="10" stroke-width="2" d="M20.321 25.101H5.679a.457.457 0 0 1-.449-.449V10.528c0-.242.207-.449.449-.449h14.642c.242 0 .449.207.449.449v14.124a.457.457 0 0 1-.449.449zM8.511 10.079c0-5.18 4.489-5.18 4.489-5.18s4.489 0 4.489 5.18" style="stroke:var(--color1, #fff)"/></symbol><symbol id="icon-phone" viewBox="0 0 32 32"><path d="M8.833 14.393a20.082 20.082 0 0 0 8.787 8.78l2.933-2.94a1.338 1.338 0 0 1 1.353-.327c1.493.493 3.1.76 4.76.76.74 0 1.333.593 1.333 1.333v4.667c0 .74-.593 1.333-1.333 1.333-12.52 0-22.667-10.147-22.667-22.667 0-.74.6-1.333 1.333-1.333h4.667c.74 0 1.333.593 1.333 1.333 0 1.66.267 3.267.76 4.76.147.46.04.987-.327 1.353l-2.933 2.947z"/></symbol><symbol id="icon-Arrow-2" viewBox="0 0 32 32"><path fill="#fff" d="M15.293 17.121a.999.999 0 0 0 1.414 0l6.364-6.364a.999.999 0 1 0-1.414-1.414L16 15l-5.657-5.657a.999.999 0 1 0-1.414 1.414l6.364 6.364zM15 15v1.414h2V15h-2z" style="fill:var(--color1, #fff)"/></symbol><symbol id="icon-Arrow-category" viewBox="0 0 32 32"><path fill="#fff" d="M31.632 16.566a.8.8 0 0 0 0-1.131l-5.091-5.091a.8.8 0 0 0-1.131 1.131l4.525 4.526-4.525 4.526a.8.8 0 0 0 1.131 1.131l5.091-5.091zM0 16.8h31.066v-1.6H0v1.6z" style="fill:var(--color1, #fff)"/></symbol><symbol id="icon-search" viewBox="0 0 32 32"><path fill="none" stroke="#b8bdc0" stroke-linecap="round" stroke-linejoin="round" stroke-width="4" d="M14 24c5.523 0 10-4.477 10-10S19.523 4 14 4 4 8.477 4 14s4.477 10 10 10zM28 28l-6.933-6.933" style="stroke:var(--color2, #b8bdc0)"/></symbol><symbol id="icon-Arrow-articles" viewBox="0 0 32 32"><path fill="#487acd" d="M31.777 16.539a.762.762 0 0 0 0-1.078l-4.849-4.849a.762.762 0 1 0-1.078 1.078L30.16 16l-4.31 4.31a.762.762 0 1 0 1.078 1.078l4.849-4.849zM0 16.762h31.238v-1.524H0v1.524z" style="fill:var(--color3, #487acd)"/></symbol><symbol id="icon-arrow-up" viewBox="0 0 55 32"><path d="M25.004 2.147a3.429 3.429 0 0 1 4.849 0l21.819 21.819a3.429 3.429 0 0 1-4.849 4.849L27.428 9.42 8.033 28.815a3.429 3.429 0 0 1-4.849-4.849L25.003 2.147zM24 9.143V4.572h6.857v4.571H24z"/></symbol><symbol id="icon-arrow-down" viewBox="0 0 55 32"><path fill="currentColor" d="M25.004 30.548a3.429 3.429 0 0 0 4.849 0L51.672 8.729a3.429 3.429 0 0 0-4.849-4.849L27.428 23.275 8.033 3.88a3.429 3.429 0 0 0-4.849 4.849l21.819 21.819zM24 23.528v4.596h6.857v-4.596H24z"/></symbol><symbol id="icon-email" viewBox="0 0 48 32"><path d="M3.512 0c-.69 0-1.324.207-1.866.549l20.78 17.58c.951.806 2.233.806 3.183 0L46.353.549A3.484 3.484 0 0 0 44.487 0H3.512zM.201 2.36A3.511 3.511 0 0 0 0 3.512v23.415c0 .705.212 1.353.567 1.902l14.872-13.554L.201 2.36zm47.598 0L32.597 15.257 47.433 28.83A3.484 3.484 0 0 0 48 26.928V3.513c0-.405-.076-.791-.201-1.152V2.36zM30.805 16.792 27.11 19.92a4.798 4.798 0 0 1-6.201 0l-3.677-3.11L2.469 30.273c.33.102.678.165 1.043.165h40.976c.365 0 .713-.062 1.043-.165L30.806 16.791z"/></symbol><symbol id="icon-noun-location" viewBox="0 0 32 32"><path d="M16.323 31.892c.16-.072.304-.176.421-.306 2.758-3.014 10.678-12.345 10.678-18.758a12.091 12.091 0 0 0-6.954-11.701A12.1 12.1 0 0 0 15.814.002 12.151 12.151 0 0 0 4.357 7.815a12.166 12.166 0 0 0-.792 4.821c0 6.605 8.433 15.937 11.319 18.951a1.237 1.237 0 0 0 .93.414c.175 0 .349-.037.509-.108zm4.525-20.861a5.356 5.356 0 1 1-10.711-.001 5.356 5.356 0 0 1 10.711.001z"/></symbol></svg>