<svg xmlns="http://www.w3.org/2000/svg" aria-hidden="true" style="position:absolute;width:0;height:0;overflow:hidden"><defs><symbol id="icon-close" viewBox="0 0 32 32"><path d="M17.767 16 31.634 2.134a1.25 1.25 0 1 0-1.77-1.768L15.999 14.233 2.133.366A1.25 1.25 0 0 0 .364 2.135l13.867 13.866L.364 29.867a1.25 1.25 0 0 0 1.769 1.769l13.866-13.867 13.866 13.867a1.245 1.245 0 0 0 1.768 0 1.247 1.247 0 0 0 0-1.768L17.766 16.002z"/></symbol><symbol id="icon-envelope" viewBox="0 0 43 32"><path d="M38.667 0H4C1.75 0 0 1.833 0 4v24c0 2.25 1.75 4 4 4h34.667c2.167 0 4-1.75 4-4V4c0-2.167-1.833-4-4-4zm0 4v3.417C36.75 9 33.75 11.334 27.417 16.334c-1.417 1.083-4.167 3.75-6.083 3.667-2 .083-4.75-2.583-6.167-3.667-6.333-5-9.333-7.333-11.167-8.917V4h34.667zM4 28V12.583c1.833 1.5 4.583 3.667 8.667 6.917 1.833 1.417 5.083 4.583 8.667 4.5 3.5.083 6.667-3.083 8.583-4.5 4.083-3.25 6.833-5.417 8.75-6.917V28H4z"/></symbol><symbol id="icon-facebook" viewBox="0 0 32 32"><path fill="#707070" d="M31.5 16C31.5 7.437 24.562.5 16 .5S.5 7.438.5 16c0 7.75 5.625 14.188 13.063 15.312V20.5H9.625V16h3.938v-3.375c0-3.875 2.313-6.063 5.813-6.063 1.75 0 3.5.313 3.5.313v3.813h-1.937c-1.938 0-2.563 1.188-2.563 2.438v2.875h4.313l-.688 4.5h-3.625v10.812c7.437-1.125 13.125-7.562 13.125-15.312z" style="fill:var(--color1, #707070)"/></symbol><symbol id="icon-menu" viewBox="0 0 41 32"><path d="M39.126 28.69H1.701C.762 28.69 0 29.432 0 30.345S.762 32 1.701 32h37.425c.939 0 1.701-.742 1.701-1.655s-.762-1.655-1.701-1.655zM39.172 0H16a1.656 1.656 0 0 0 0 3.31h23.172a1.656 1.656 0 0 0 0-3.31zM39.126 9.931H1.701C.762 9.931 0 10.673 0 11.586s.762 1.655 1.701 1.655h37.425c.939 0 1.701-.742 1.701-1.655s-.762-1.655-1.701-1.655zM39.172 19.862H16a1.656 1.656 0 0 0 0 3.31h23.172a1.656 1.656 0 0 0 0-3.31z"/></symbol><symbol id="icon-instagram" viewBox="0 0 30 32"><path fill="#707070" d="M14.933 7.267c-4.267 0-7.667 3.467-7.667 7.667 0 4.267 3.4 7.667 7.667 7.667 4.2 0 7.667-3.4 7.667-7.667 0-4.2-3.467-7.667-7.667-7.667zm0 12.666c-2.733 0-5-2.2-5-5 0-2.733 2.2-4.933 5-4.933 2.733 0 4.933 2.2 4.933 4.933 0 2.8-2.2 5-4.933 5zM24.667 7c0-1-.8-1.8-1.8-1.8s-1.8.8-1.8 1.8.8 1.8 1.8 1.8 1.8-.8 1.8-1.8zm5.066 1.8c-.133-2.4-.667-4.533-2.4-6.267S23.466.266 21.066.133C18.599 0 11.199 0 8.733.133c-2.4.133-4.467.667-6.267 2.4C.733 4.266.199 6.4.066 8.8c-.133 2.467-.133 9.867 0 12.333.133 2.4.667 4.467 2.4 6.267 1.8 1.733 3.867 2.266 6.267 2.4 2.467.133 9.867.133 12.333 0 2.4-.134 4.533-.667 6.267-2.4 1.733-1.8 2.267-3.867 2.4-6.267.133-2.467.133-9.867 0-12.333zm-3.2 14.933c-.467 1.333-1.533 2.333-2.8 2.867-2 .8-6.667.6-8.8.6-2.2 0-6.867.2-8.8-.6a5.056 5.056 0 0 1-2.867-2.867c-.8-1.933-.6-6.6-.6-8.8 0-2.133-.2-6.8.6-8.8a5.138 5.138 0 0 1 2.867-2.8c1.933-.8 6.6-.6 8.8-.6 2.133 0 6.8-.2 8.8.6C25 3.8 26 4.866 26.533 6.133c.8 2 .6 6.667.6 8.8 0 2.2.2 6.867-.6 8.8z" style="fill:var(--color1, #707070)"/></symbol><symbol id="icon-pinterest" viewBox="0 0 32 32"><path fill="#707070" d="M31 16C31 7.437 24.062.5 15.5.5S0 7.438 0 16a15.43 15.43 0 0 0 9.813 14.438c-.125-1.188-.25-3.063.063-4.438.313-1.188 1.813-7.688 1.813-7.688s-.438-.938-.438-2.313c0-2.125 1.25-3.75 2.813-3.75 1.313 0 1.938 1 1.938 2.188 0 1.313-.875 3.313-1.313 5.188-.313 1.5.813 2.75 2.313 2.75 2.75 0 4.875-2.875 4.875-7.063 0-3.75-2.688-6.313-6.438-6.313-4.438 0-7 3.313-7 6.688 0 1.375.5 2.813 1.125 3.563.125.125.125.313.125.438-.125.5-.438 1.563-.438 1.75-.063.312-.25.375-.563.25-1.938-.938-3.125-3.75-3.125-6.063 0-4.875 3.563-9.375 10.25-9.375 5.375 0 9.563 3.875 9.563 9 0 5.312-3.375 9.625-8.063 9.625-1.563 0-3.063-.813-3.563-1.813 0 0-.75 3-.938 3.688-.375 1.375-1.313 3.062-1.938 4.062 1.438.5 3 .688 4.625.688 8.562 0 15.5-6.938 15.5-15.5z" style="fill:var(--color1, #707070)"/></symbol><symbol id="icon-whatsapp" viewBox="0 0 32 32"><path fill="#707070" d="M27.143 4.714A15.603 15.603 0 0 0 15.929 0C7.215 0 .072 7.143.072 15.857c0 2.857.786 5.571 2.143 7.928L.001 31.999l8.357-2.143c2.357 1.214 4.929 1.928 7.571 1.928C24.715 31.784 32 24.641 32 15.927c0-4.286-1.857-8.214-4.857-11.214zM15.929 29.072c-2.357 0-4.643-.643-6.714-1.857l-.429-.286-5 1.357 1.357-4.857-.357-.5c-1.286-2.143-2-4.571-2-7.071C2.786 8.644 8.715 2.715 16 2.715c3.5 0 6.786 1.357 9.286 3.857s4 5.786 4 9.357c0 7.214-6.072 13.143-13.357 13.143zm7.285-9.858c-.428-.214-2.357-1.143-2.714-1.286s-.643-.214-.929.214c-.214.357-1 1.286-1.214 1.571-.286.214-.5.286-.857.071-2.357-1.143-3.857-2.071-5.429-4.714-.429-.714.429-.643 1.143-2.143.143-.286.071-.5 0-.714S12.285 10.07 12 9.284c-.357-.786-.643-.714-.929-.714h-.714c-.286 0-.714.071-1.071.5s-1.357 1.357-1.357 3.286c0 2 1.357 3.857 1.571 4.143.214.214 2.786 4.214 6.786 5.929 2.5 1.143 3.5 1.214 4.786 1 .714-.071 2.286-.929 2.643-1.857s.357-1.714.214-1.857c-.072-.214-.357-.286-.715-.5z" style="fill:var(--color1, #707070)"/></symbol><symbol id="icon-youtube" viewBox="0 0 48 32"><path fill="#707070" d="M45.75 5.083c-.5-2-2.083-3.583-4-4.083C38.167 0 24 0 24 0S9.75 0 6.167 1c-1.917.5-3.5 2.083-4 4.083-1 3.5-1 11-1 11s0 7.417 1 11c.5 2 2.083 3.5 4 4C9.75 32 24 32 24 32s14.167 0 17.75-.917c1.917-.5 3.5-2 4-4 1-3.583 1-11 1-11s0-7.5-1-11zm-26.417 17.75v-13.5l11.833 6.75-11.833 6.75z" style="fill:var(--color1, #707070)"/></symbol></defs></svg>